# xmcd
#
# Track frame offsets:
#	150
#	13956
#	25590
#	39813
#	54641
#	66955
#	78225
#	90896
#	105441
#	120074
#	130787
#	143366
#	155275
#	169043
#	183001
#	195274
#	207312
#	217832
#	229800
#	244337
#	261209
#	273619
#
# Disc length: 3858 seconds
# Revision: 0
# Processed by: cddbd v1.5.2PL0 Copyright (c) Steve Scherf et al.
# Submitted via: dBpowerAMP V12.0
#
DISCID=0f0f1016
DTITLE=Anne Murray - Greatest Hits Disk 3
DYEAR=1900
DGENRE=
TTITLE0=A Little Good News
TTITLE1=I'll Be Home
TTITLE2=Sunday Sunrise
TTITLE3=Lift Your Hearts To The Sun
TTITLE4=Get Together
TTITLE5=United We Stand
TTITLE6=I'll Never Fall In Love Again
TTITLE7=Let Me Be The One
TTITLE8=Nevertheless
TTITLE9=Everything Old Is New Again
TTITLE10=Canadian Sunset
TTITLE11=You've Got A Friend
TTITLE12=Dream Lover
TTITLE13=Rainin' In My Heart
TTITLE14=Day Tripper
TTITLE15=Harder They Fall
TTITLE16=Fire And Rain
TTITLE17=What About Me
TTITLE18=I Know
TTITLE19=Ease Your Pain
TTITLE20=One Day I Walk
TTITLE21=Put Your Hand In The Hand
EXTD=
EXTT0=
EXTT1=
EXTT2=
EXTT3=
EXTT4=
EXTT5=
EXTT6=
EXTT7=
EXTT8=
EXTT9=
EXTT10=
EXTT11=
EXTT12=
EXTT13=
EXTT14=
EXTT15=
EXTT16=
EXTT17=
EXTT18=
EXTT19=
EXTT20=
EXTT21=
PLAYORDER=
